<svg width="52" height="52" viewBox="0 0 52 52" fill="none" xmlns="http://www.w3.org/2000/svg">
<path fill-rule="evenodd" clip-rule="evenodd" d="M19.819 8.58729C22.8355 6.8491 24.3438 5.98 26 5.98C27.6562 5.98 29.1645 6.8491 32.181 8.58729L38.019 11.9512C41.0355 13.6894 42.5438 14.5585 43.3719 15.99C44.2 17.4215 44.2 19.1597 44.2 22.6361V29.3639C44.2 32.8403 44.2 34.5785 43.3719 36.01C42.5438 37.4415 41.0355 38.3106 38.019 40.0488L32.181 43.4127C29.1645 45.1509 27.6562 46.02 26 46.02C24.3438 46.02 22.8355 45.1509 19.819 43.4127L13.981 40.0488C10.9645 38.3106 9.45621 37.4415 8.6281 36.01C7.8 34.5785 7.8 32.8403 7.8 29.3639V22.6361C7.8 19.1597 7.8 17.4215 8.6281 15.99C9.45621 14.5585 10.9645 13.6894 13.981 11.9512L19.819 8.58729ZM18.46 18.98C18.0292 18.98 17.68 19.3292 17.68 19.76V22.5141C17.68 22.9449 18.0292 23.2941 18.46 23.2941H23.063C23.4937 23.2941 23.843 23.6433 23.843 24.0741V34.84C23.843 35.2708 24.1922 35.62 24.623 35.62H27.377C27.8078 35.62 28.157 35.2708 28.157 34.84V24.0741C28.157 23.6433 28.5063 23.2941 28.937 23.2941H33.54C33.9708 23.2941 34.32 22.9449 34.32 22.5141V19.76C34.32 19.3292 33.9708 18.98 33.54 18.98H18.46Z" fill="white"/>
<path fill-rule="evenodd" clip-rule="evenodd" d="M0 24.7213C0 13.0676 0 7.2407 3.62035 3.62035C7.2407 0 13.0676 0 24.7213 0H27.2787C38.9324 0 44.7593 0 48.3796 3.62035C52 7.2407 52 13.0676 52 24.7213V27.2787C52 38.9324 52 44.7593 48.3796 48.3796C44.7593 52 38.9324 52 27.2787 52H24.7213C13.0676 52 7.2407 52 3.62035 48.3796C0 44.7593 0 38.9324 0 27.2787V24.7213ZM24.7213 1.56H27.2787C33.1497 1.56 37.396 1.56331 40.6338 1.99863C43.8268 2.42792 45.8045 3.25142 47.2766 4.72344C48.7486 6.19546 49.5721 8.17319 50.0014 11.3662C50.4367 14.604 50.44 18.8503 50.44 24.7213V27.2787C50.44 33.1497 50.4367 37.396 50.0014 40.6338C49.5721 43.8268 48.7486 45.8045 47.2766 47.2766C45.8045 48.7486 43.8268 49.5721 40.6338 50.0014C37.396 50.4367 33.1497 50.44 27.2787 50.44H24.7213C18.8503 50.44 14.604 50.4367 11.3662 50.0014C8.17319 49.5721 6.19546 48.7486 4.72344 47.2766C3.25142 45.8045 2.42792 43.8268 1.99863 40.6338C1.56331 37.396 1.56 33.1497 1.56 27.2787V24.7213C1.56 18.8503 1.56331 14.604 1.99863 11.3662C2.42792 8.17319 3.25142 6.19546 4.72344 4.72344C6.19546 3.25142 8.17319 2.42792 11.3662 1.99863C14.604 1.56331 18.8503 1.56 24.7213 1.56Z" fill="white"/>
</svg>
